#N canvas 218 23 783 846 12;
#X obj 309 69 unpackOSC;
#X obj 309 15 udpreceive 9962;
#X floatatom 309 306 5 0 0 0 - - -;
#X obj 309 130 routeOSC /oscControl/slider1;
#X obj 373 664 osc~;
#X obj 373 780 dac~;
#X obj 172 499 * 0;
#X obj 257 410 bng 15 250 50 0 empty empty empty 17 7 0 10 -262144
-1 -1;
#X obj 298 410 bng 15 250 50 0 empty empty empty 17 7 0 10 -262144
-1 -1;
#X obj 336 410 bng 15 250 50 0 empty empty empty 17 7 0 10 -262144
-1 -1;
#X obj 368 410 bng 15 250 50 0 empty empty empty 17 7 0 10 -262144
-1 -1;
#X obj 391 410 bng 15 250 50 0 empty empty empty 17 7 0 10 -262144
-1 -1;
#X obj 427 410 bng 15 250 50 0 empty empty empty 17 7 0 10 -262144
-1 -1;
#X obj 309 355 sel 0 1 2 3 4 5;
#X obj 372 739 *~ 0.3;
#X obj 367 499 + 3000;
#X obj 236 499 + 1000;
#X obj 305 499 + 2000;
#X obj 432 499 + 4000;
#X obj 492 499 + 5000;
#X obj 549 499 + 10000;
#X obj 464 410 bng 15 250 50 0 empty empty empty 17 7 0 10 -262144
-1 -1;
#X obj 89 171 udpsend 127.0.0.1 9961;
#X msg 89 46 connect localhost 9961;
#X msg 123 77 disconnect;
#X obj 89 234 tgl 15 0 empty empty empty 17 7 0 10 -262144 -1 -1 0
1;
#X obj 89 7 loadbang;
#X obj 544 69 print 1 -;
#X obj 544 119 print 2 -;
#X obj 545 189 print 3 -;
#X obj 312 238 + 0.4999;
#X obj 310 273 int;
#X connect 0 0 3 0;
#X connect 0 0 28 0;
#X connect 1 0 0 0;
#X connect 1 0 22 0;
#X connect 1 0 27 0;
#X connect 2 0 13 0;
#X connect 3 0 29 0;
#X connect 3 0 30 0;
#X connect 4 0 14 0;
#X connect 6 0 4 0;
#X connect 7 0 6 0;
#X connect 8 0 16 0;
#X connect 9 0 17 0;
#X connect 10 0 15 0;
#X connect 11 0 18 0;
#X connect 12 0 19 0;
#X connect 13 0 7 0;
#X connect 13 1 8 0;
#X connect 13 2 9 0;
#X connect 13 3 10 0;
#X connect 13 4 11 0;
#X connect 13 5 12 0;
#X connect 13 6 21 0;
#X connect 14 0 5 0;
#X connect 15 0 4 0;
#X connect 16 0 4 0;
#X connect 17 0 4 0;
#X connect 18 0 4 0;
#X connect 19 0 4 0;
#X connect 20 0 4 0;
#X connect 21 0 20 0;
#X connect 22 0 25 0;
#X connect 23 0 22 0;
#X connect 24 0 22 0;
#X connect 26 0 23 0;
#X connect 30 0 31 0;
#X connect 31 0 2 0;
