#N canvas 679 251 807 641 12;
#X obj 204 45 unpackOSC;
#X obj 204 19 udpreceive 9962;
#X floatatom 204 175 5 0 0 0 - - -;
#X obj 364 70 udpsend 127.0.0.1 9961;
#X msg 364 19 connect localhost 9961;
#X msg 444 44 disconnect;
#X obj 364 97 tgl 15 0 empty empty empty 17 7 0 10 -262144 -1 -1 1
1;
#X obj 364 -6 loadbang;
#X obj 84 43 print 1 -;
#X obj 84 69 print 2 -;
#X obj 85 95 print 3 -;
#X obj 204 122 + 0.499999;
#X obj 204 149 int;
#X obj 204 249 bng 15 250 50 0 empty empty empty 17 7 0 10 -262144
-1 -1;
#X obj 258 249 bng 15 250 50 0 empty empty empty 17 7 0 10 -262144
-1 -1;
#X obj 312 249 bng 15 250 50 0 empty empty empty 17 7 0 10 -262144
-1 -1;
#X obj 367 249 bng 15 250 50 0 empty empty empty 17 7 0 10 -262144
-1 -1;
#X obj 421 249 bng 15 250 50 0 empty empty empty 17 7 0 10 -262144
-1 -1;
#X obj 475 249 bng 15 250 50 0 empty empty empty 17 7 0 10 -262144
-1 -1;
#X obj 204 208 sel 0 1 2 3 4 5, f 47;
#X obj 530 249 bng 15 250 50 0 empty empty empty 17 7 0 10 -262144
-1 -1;
#N canvas 147 2 651 543 sound1 0;
#X obj 236 139 tgl 15 0 empty empty empty 17 7 0 10 -262144 -1 -1 1
1;
#X obj 236 169 metro;
#X obj 236 196 random 4;
#X obj 236 223 route 0 1 2;
#X msg 236 250 440;
#X msg 269 250 524;
#X msg 307 250 660;
#X msg 343 250 880;
#X floatatom 236 329 5 0 0 0 - - -;
#X obj 362 312 / 2;
#X obj 362 339 *;
#X obj 236 382 *~;
#X obj 379 94 random 4;
#X obj 379 120 * 200;
#X obj 379 152 t f f;
#X obj 236 304 line;
#X floatatom 400 357 5 0 0 0 - - -;
#X obj 236 427 dac~;
#X obj 236 354 osc~;
#X obj 362 364 osc~;
#X obj 236 71 inlet;
#X obj 595 201 outlet;
#X connect 0 0 1 0;
#X connect 0 0 15 2;
#X connect 0 0 11 1;
#X connect 1 0 2 0;
#X connect 1 0 12 0;
#X connect 2 0 3 0;
#X connect 3 0 4 0;
#X connect 3 1 5 0;
#X connect 3 2 6 0;
#X connect 3 2 7 0;
#X connect 4 0 15 0;
#X connect 5 0 15 0;
#X connect 6 0 15 0;
#X connect 7 0 15 0;
#X connect 8 0 9 0;
#X connect 8 0 18 0;
#X connect 9 0 10 0;
#X connect 10 0 16 0;
#X connect 10 0 19 0;
#X connect 11 0 17 0;
#X connect 11 0 17 1;
#X connect 12 0 13 0;
#X connect 12 0 10 1;
#X connect 13 0 14 0;
#X connect 14 0 1 1;
#X connect 14 1 15 1;
#X connect 15 0 8 0;
#X connect 18 0 11 0;
#X connect 19 0 11 0;
#X connect 20 0 0 0;
#X restore 166 430 pd sound1;
#N canvas 653 7 722 683 sound2 0;
#X obj 224 313 metro;
#X obj 224 341 random 4;
#X obj 224 368 route 0 1 2;
#X msg 224 395 440;
#X msg 257 395 524;
#X msg 295 395 660;
#X msg 331 395 880;
#X obj 224 429 / 4;
#X obj 224 516 osc~;
#X floatatom 224 454 5 0 0 0 - - -;
#X obj 269 459 / 2;
#X obj 269 486 *;
#X obj 269 511 osc~;
#X obj 224 544 *~;
#X obj 224 601 dac~;
#X obj 284 252 random 4;
#X obj 284 278 * 200;
#X obj 240 141 tgl 15 0 empty empty empty 17 7 0 10 -262144 -1 -1 0
1;
#X obj 79 313 metro;
#X obj 79 341 random 4;
#X obj 79 368 route 0 1 2;
#X msg 79 395 440;
#X msg 112 395 524;
#X msg 150 395 660;
#X msg 186 395 880;
#X obj 79 479 osc~;
#X floatatom 79 454 5 0 0 0 - - -;
#X obj 124 459 / 2;
#X obj 124 486 *;
#X obj 124 511 osc~;
#X obj 79 507 *~;
#X obj 139 252 random 4;
#X obj 139 278 * 200;
#X obj 139 310 t f f;
#X obj 79 429 line;
#X obj 368 310 metro;
#X obj 368 338 random 4;
#X obj 368 365 route 0 1 2;
#X msg 368 392 440;
#X msg 401 392 524;
#X msg 439 392 660;
#X msg 475 392 880;
#X obj 368 476 osc~;
#X floatatom 368 451 5 0 0 0 - - -;
#X obj 413 456 / 2;
#X obj 413 483 *;
#X obj 413 508 osc~;
#X obj 368 504 *~;
#X obj 428 249 random 4;
#X obj 428 275 * 200;
#X obj 428 307 t f f;
#X obj 368 426 line;
#X obj 534 330 metro;
#X obj 534 356 f;
#X obj 534 382 + 1;
#X floatatom 534 408 5 0 0 0 - - -;
#X obj 534 433 line;
#X obj 534 459 + 0.2;
#X floatatom 534 484 5 0 0 0 - - -;
#X obj 597 382 random 3000;
#X obj 597 446 t f f;
#X obj 597 473 sel 1;
#X msg 597 500 -1;
#X obj 368 566 *~;
#X obj 368 536 clip~ -0.5 0.5;
#X floatatom 162 504 5 0 0 0 - - -;
#X floatatom 327 500 5 0 0 0 - - -;
#X floatatom 224 480 5 0 0 0 - - -;
#X obj 240 111 inlet;
#X obj 298 112 outlet;
#X connect 0 0 1 0;
#X connect 0 0 15 0;
#X connect 1 0 2 0;
#X connect 2 0 3 0;
#X connect 2 1 4 0;
#X connect 2 2 5 0;
#X connect 2 2 6 0;
#X connect 3 0 7 0;
#X connect 4 0 7 0;
#X connect 5 0 7 0;
#X connect 6 0 7 0;
#X connect 7 0 9 0;
#X connect 8 0 13 0;
#X connect 9 0 10 0;
#X connect 9 0 67 0;
#X connect 10 0 11 0;
#X connect 11 0 12 0;
#X connect 11 0 67 0;
#X connect 12 0 13 0;
#X connect 13 0 14 0;
#X connect 13 0 14 1;
#X connect 15 0 16 0;
#X connect 15 0 11 1;
#X connect 16 0 0 1;
#X connect 17 0 0 0;
#X connect 17 0 13 1;
#X connect 17 0 18 0;
#X connect 17 0 34 2;
#X connect 17 0 30 1;
#X connect 17 0 51 2;
#X connect 17 0 47 1;
#X connect 17 0 35 0;
#X connect 17 0 52 0;
#X connect 17 0 56 2;
#X connect 18 0 19 0;
#X connect 18 0 31 0;
#X connect 19 0 20 0;
#X connect 20 0 21 0;
#X connect 20 1 22 0;
#X connect 20 2 23 0;
#X connect 20 2 24 0;
#X connect 21 0 34 0;
#X connect 22 0 34 0;
#X connect 23 0 34 0;
#X connect 24 0 34 0;
#X connect 25 0 30 0;
#X connect 26 0 25 0;
#X connect 26 0 27 0;
#X connect 27 0 28 0;
#X connect 28 0 29 0;
#X connect 28 0 65 0;
#X connect 29 0 30 0;
#X connect 30 0 14 0;
#X connect 30 0 14 1;
#X connect 31 0 32 0;
#X connect 31 0 28 1;
#X connect 32 0 33 0;
#X connect 33 0 18 1;
#X connect 33 1 34 1;
#X connect 34 0 26 0;
#X connect 35 0 36 0;
#X connect 35 0 48 0;
#X connect 36 0 37 0;
#X connect 37 0 38 0;
#X connect 37 1 39 0;
#X connect 37 2 40 0;
#X connect 37 2 41 0;
#X connect 38 0 51 0;
#X connect 39 0 51 0;
#X connect 40 0 51 0;
#X connect 41 0 51 0;
#X connect 42 0 47 0;
#X connect 43 0 42 0;
#X connect 43 0 44 0;
#X connect 44 0 45 0;
#X connect 45 0 46 0;
#X connect 45 0 66 0;
#X connect 46 0 47 0;
#X connect 47 0 14 0;
#X connect 47 0 14 1;
#X connect 47 0 64 0;
#X connect 48 0 49 0;
#X connect 48 0 45 1;
#X connect 49 0 50 0;
#X connect 50 0 35 1;
#X connect 50 1 51 1;
#X connect 51 0 43 0;
#X connect 52 0 53 0;
#X connect 52 0 59 0;
#X connect 53 0 54 0;
#X connect 54 0 55 0;
#X connect 54 0 60 0;
#X connect 55 0 56 0;
#X connect 56 0 57 0;
#X connect 57 0 58 0;
#X connect 58 0 63 1;
#X connect 59 0 56 1;
#X connect 59 0 52 1;
#X connect 60 0 61 0;
#X connect 60 1 53 1;
#X connect 61 0 62 0;
#X connect 62 0 53 1;
#X connect 63 0 14 0;
#X connect 63 0 14 1;
#X connect 64 0 63 0;
#X connect 67 0 8 0;
#X connect 68 0 17 0;
#X restore 254 430 pd sound2;
#N canvas 1228 27 593 592 sound3 0;
#X obj 353 59 tgl 15 0 empty empty empty 17 7 0 10 -262144 -1 -1 0
1;
#X obj 139 189 metro;
#X obj 139 216 random 4;
#X obj 139 243 route 0 1 2;
#X floatatom 139 349 5 0 0 0 - - -;
#X obj 265 332 / 2;
#X obj 265 359 *;
#X obj 139 402 *~;
#X obj 282 114 random 4;
#X obj 282 140 * 200;
#X obj 282 172 t f f;
#X obj 139 324 line;
#X floatatom 303 377 5 0 0 0 - - -;
#X obj 312 476 dac~;
#X msg 139 270 500;
#X msg 173 270 600;
#X msg 211 270 700;
#X msg 246 270 800;
#X obj 355 242 metro;
#X obj 355 268 f;
#X obj 355 294 + 1;
#X floatatom 355 320 5 0 0 0 - - -;
#X obj 355 345 line;
#X obj 355 371 + 0.2;
#X floatatom 355 396 5 0 0 0 - - -;
#X obj 418 294 random 3000;
#X obj 418 358 t f f;
#X obj 418 385 sel 1;
#X msg 418 412 -1;
#X obj 337 437 *~;
#X obj 353 32 inlet;
#X obj 407 32 outlet;
#X obj 139 374 phasor~;
#X obj 265 385 osc~;
#X connect 0 0 1 0;
#X connect 0 0 11 2;
#X connect 0 0 7 1;
#X connect 0 0 18 0;
#X connect 0 0 22 2;
#X connect 1 0 2 0;
#X connect 1 0 8 0;
#X connect 2 0 3 0;
#X connect 3 0 14 0;
#X connect 3 1 15 0;
#X connect 3 2 16 0;
#X connect 3 2 17 0;
#X connect 4 0 5 0;
#X connect 4 0 32 0;
#X connect 5 0 6 0;
#X connect 6 0 12 0;
#X connect 6 0 33 0;
#X connect 7 0 13 0;
#X connect 7 0 13 1;
#X connect 8 0 9 0;
#X connect 8 0 6 1;
#X connect 9 0 10 0;
#X connect 10 0 1 1;
#X connect 10 1 11 1;
#X connect 11 0 4 0;
#X connect 14 0 11 0;
#X connect 15 0 11 0;
#X connect 16 0 11 0;
#X connect 17 0 11 0;
#X connect 18 0 19 0;
#X connect 18 0 25 0;
#X connect 19 0 20 0;
#X connect 20 0 21 0;
#X connect 20 0 26 0;
#X connect 21 0 22 0;
#X connect 22 0 23 0;
#X connect 23 0 24 0;
#X connect 24 0 29 1;
#X connect 25 0 22 1;
#X connect 25 0 18 1;
#X connect 26 0 27 0;
#X connect 26 1 19 1;
#X connect 27 0 28 0;
#X connect 28 0 19 1;
#X connect 29 0 13 0;
#X connect 29 0 13 1;
#X connect 30 0 0 0;
#X connect 32 0 7 0;
#X connect 33 0 7 0;
#X restore 339 430 pd sound3;
#N canvas 960 217 872 664 sound4 0;
#X obj 367 74 inlet;
#X obj 407 11 outlet;
#X obj 206 284 metro;
#X obj 206 312 random 4;
#X obj 206 339 route 0 1 2;
#X msg 206 366 440;
#X msg 239 366 524;
#X msg 277 366 660;
#X msg 313 366 880;
#X obj 206 400 / 4;
#X obj 206 487 osc~;
#X floatatom 206 425 5 0 0 0 - - -;
#X obj 251 430 / 2;
#X obj 251 457 *;
#X obj 251 482 osc~;
#X obj 206 515 *~;
#X obj 206 572 dac~;
#X obj 266 223 random 4;
#X obj 266 249 * 200;
#X obj 367 116 tgl 15 0 empty empty empty 17 7 0 10 -262144 -1 -1 0
1;
#X obj 61 284 metro;
#X obj 61 312 random 4;
#X obj 61 339 route 0 1 2;
#X msg 61 366 440;
#X msg 94 366 524;
#X msg 132 366 660;
#X msg 168 366 880;
#X obj 61 450 osc~;
#X floatatom 61 425 5 0 0 0 - - -;
#X obj 106 430 / 2;
#X obj 106 457 *;
#X obj 106 482 osc~;
#X obj 61 478 *~;
#X obj 121 223 random 4;
#X obj 121 249 * 200;
#X obj 121 281 t f f;
#X obj 61 400 line;
#X obj 527 291 metro;
#X obj 527 319 random 4;
#X obj 527 346 route 0 1 2;
#X msg 527 373 440;
#X msg 560 373 524;
#X msg 598 373 660;
#X msg 634 373 880;
#X obj 527 457 osc~;
#X floatatom 527 432 5 0 0 0 - - -;
#X obj 572 437 / 2;
#X obj 572 464 *;
#X obj 572 489 osc~;
#X obj 527 485 *~;
#X obj 587 230 random 4;
#X obj 587 256 * 200;
#X obj 587 288 t f f;
#X obj 527 407 line;
#X obj 693 311 metro;
#X obj 693 337 f;
#X obj 693 363 + 1;
#X floatatom 693 389 5 0 0 0 - - -;
#X obj 693 414 line;
#X obj 693 440 + 0.2;
#X floatatom 693 465 5 0 0 0 - - -;
#X obj 756 363 random 3000;
#X obj 756 427 t f f;
#X obj 756 454 sel 1;
#X msg 756 481 -1;
#X obj 527 547 *~;
#X obj 527 517 clip~ -0.5 0.5;
#X floatatom 144 475 5 0 0 0 - - -;
#X floatatom 486 482 5 0 0 0 - - -;
#X floatatom 206 451 5 0 0 0 - - -;
#X obj 372 280 metro;
#X obj 372 308 random 4;
#X obj 372 335 route 0 1 2;
#X msg 372 362 440;
#X msg 405 362 524;
#X msg 443 362 660;
#X msg 479 362 880;
#X obj 372 396 / 4;
#X obj 372 483 osc~;
#X floatatom 372 421 5 0 0 0 - - -;
#X obj 417 426 / 2;
#X obj 417 453 *;
#X obj 417 478 osc~;
#X obj 372 511 *~;
#X obj 432 219 random 4;
#X obj 432 245 * 200;
#X floatatom 372 447 5 0 0 0 - - -;
#X connect 0 0 19 0;
#X connect 2 0 3 0;
#X connect 2 0 17 0;
#X connect 3 0 4 0;
#X connect 4 0 5 0;
#X connect 4 1 6 0;
#X connect 4 2 7 0;
#X connect 4 2 8 0;
#X connect 5 0 9 0;
#X connect 6 0 9 0;
#X connect 7 0 9 0;
#X connect 8 0 9 0;
#X connect 9 0 11 0;
#X connect 10 0 15 0;
#X connect 11 0 12 0;
#X connect 11 0 69 0;
#X connect 12 0 13 0;
#X connect 13 0 14 0;
#X connect 13 0 69 0;
#X connect 14 0 15 0;
#X connect 15 0 16 0;
#X connect 15 0 16 1;
#X connect 17 0 18 0;
#X connect 17 0 13 1;
#X connect 18 0 2 1;
#X connect 19 0 2 0;
#X connect 19 0 15 1;
#X connect 19 0 20 0;
#X connect 19 0 36 2;
#X connect 19 0 32 1;
#X connect 19 0 53 2;
#X connect 19 0 49 1;
#X connect 19 0 37 0;
#X connect 19 0 54 0;
#X connect 19 0 58 2;
#X connect 19 0 70 0;
#X connect 19 0 83 1;
#X connect 20 0 21 0;
#X connect 20 0 33 0;
#X connect 21 0 22 0;
#X connect 22 0 23 0;
#X connect 22 1 24 0;
#X connect 22 2 25 0;
#X connect 22 2 26 0;
#X connect 23 0 36 0;
#X connect 24 0 36 0;
#X connect 25 0 36 0;
#X connect 26 0 36 0;
#X connect 27 0 32 0;
#X connect 28 0 27 0;
#X connect 28 0 29 0;
#X connect 29 0 30 0;
#X connect 30 0 31 0;
#X connect 30 0 67 0;
#X connect 31 0 32 0;
#X connect 32 0 16 0;
#X connect 32 0 16 1;
#X connect 33 0 34 0;
#X connect 33 0 30 1;
#X connect 34 0 35 0;
#X connect 35 0 20 1;
#X connect 35 1 36 1;
#X connect 36 0 28 0;
#X connect 37 0 38 0;
#X connect 37 0 50 0;
#X connect 38 0 39 0;
#X connect 39 0 40 0;
#X connect 39 1 41 0;
#X connect 39 2 42 0;
#X connect 39 2 43 0;
#X connect 40 0 53 0;
#X connect 41 0 53 0;
#X connect 42 0 53 0;
#X connect 43 0 53 0;
#X connect 44 0 49 0;
#X connect 45 0 44 0;
#X connect 45 0 46 0;
#X connect 46 0 47 0;
#X connect 47 0 48 0;
#X connect 47 0 68 0;
#X connect 48 0 49 0;
#X connect 49 0 16 0;
#X connect 49 0 16 1;
#X connect 49 0 66 0;
#X connect 50 0 51 0;
#X connect 50 0 47 1;
#X connect 51 0 52 0;
#X connect 52 0 37 1;
#X connect 52 1 53 1;
#X connect 53 0 45 0;
#X connect 54 0 55 0;
#X connect 54 0 61 0;
#X connect 55 0 56 0;
#X connect 56 0 57 0;
#X connect 56 0 62 0;
#X connect 57 0 58 0;
#X connect 58 0 59 0;
#X connect 59 0 60 0;
#X connect 60 0 65 1;
#X connect 61 0 58 1;
#X connect 61 0 54 1;
#X connect 62 0 63 0;
#X connect 62 1 55 1;
#X connect 63 0 64 0;
#X connect 64 0 55 1;
#X connect 65 0 16 0;
#X connect 65 0 16 1;
#X connect 66 0 65 0;
#X connect 69 0 10 0;
#X connect 70 0 71 0;
#X connect 70 0 84 0;
#X connect 71 0 72 0;
#X connect 72 0 73 0;
#X connect 72 1 74 0;
#X connect 72 2 75 0;
#X connect 72 2 76 0;
#X connect 73 0 77 0;
#X connect 74 0 77 0;
#X connect 75 0 77 0;
#X connect 76 0 77 0;
#X connect 77 0 79 0;
#X connect 78 0 83 0;
#X connect 79 0 80 0;
#X connect 79 0 86 0;
#X connect 80 0 81 0;
#X connect 81 0 82 0;
#X connect 81 0 86 0;
#X connect 82 0 83 0;
#X connect 83 0 16 0;
#X connect 83 0 16 1;
#X connect 84 0 85 0;
#X connect 84 0 81 1;
#X connect 85 0 70 1;
#X connect 86 0 78 0;
#X restore 429 430 pd sound4;
#N canvas 591 828 735 628 sound5 0;
#X obj 246 274 metro;
#X obj 246 302 random 4;
#X obj 246 329 route 0 1 2;
#X obj 246 390 / 4;
#X obj 246 477 osc~;
#X floatatom 246 415 5 0 0 0 - - -;
#X obj 291 420 / 2;
#X obj 291 447 *;
#X obj 291 472 osc~;
#X obj 246 505 *~;
#X obj 246 562 dac~;
#X obj 306 213 random 4;
#X obj 306 239 * 200;
#X obj 262 102 tgl 15 0 empty empty empty 17 7 0 10 -262144 -1 -1 0
1;
#X obj 101 274 metro;
#X obj 101 302 random 4;
#X obj 101 329 route 0 1 2;
#X obj 101 440 osc~;
#X floatatom 101 415 5 0 0 0 - - -;
#X obj 146 420 / 2;
#X obj 146 447 *;
#X obj 146 472 osc~;
#X obj 101 468 *~;
#X obj 161 213 random 4;
#X obj 161 239 * 200;
#X obj 161 271 t f f;
#X obj 101 390 line;
#X obj 390 271 metro;
#X obj 390 299 random 4;
#X obj 390 326 route 0 1 2;
#X obj 390 437 osc~;
#X floatatom 390 412 5 0 0 0 - - -;
#X obj 435 417 / 2;
#X obj 435 444 *;
#X obj 435 469 osc~;
#X obj 390 465 *~;
#X obj 450 210 random 4;
#X obj 450 236 * 200;
#X obj 450 268 t f f;
#X obj 390 387 line;
#X obj 556 291 metro;
#X obj 556 317 f;
#X obj 556 343 + 1;
#X floatatom 556 369 5 0 0 0 - - -;
#X obj 556 394 line;
#X obj 556 420 + 0.2;
#X floatatom 556 445 5 0 0 0 - - -;
#X obj 619 343 random 3000;
#X obj 619 407 t f f;
#X obj 619 434 sel 1;
#X msg 619 461 -1;
#X obj 390 527 *~;
#X obj 390 497 clip~ -0.5 0.5;
#X floatatom 184 465 5 0 0 0 - - -;
#X floatatom 349 461 5 0 0 0 - - -;
#X floatatom 246 441 5 0 0 0 - - -;
#X msg 101 356 880;
#X msg 134 356 660;
#X msg 173 356 524;
#X msg 209 356 440;
#X msg 246 356 880;
#X msg 280 356 660;
#X msg 317 357 524;
#X msg 353 356 440;
#X msg 390 353 880;
#X msg 423 353 660;
#X msg 461 353 524;
#X msg 498 353 440;
#X obj 262 72 inlet;
#X obj 323 72 outlet;
#X connect 0 0 1 0;
#X connect 0 0 11 0;
#X connect 1 0 2 0;
#X connect 2 0 60 0;
#X connect 2 1 61 0;
#X connect 2 2 62 0;
#X connect 2 2 63 0;
#X connect 3 0 5 0;
#X connect 4 0 9 0;
#X connect 5 0 6 0;
#X connect 5 0 55 0;
#X connect 6 0 7 0;
#X connect 7 0 8 0;
#X connect 7 0 55 0;
#X connect 8 0 9 0;
#X connect 9 0 10 0;
#X connect 9 0 10 1;
#X connect 11 0 12 0;
#X connect 11 0 7 1;
#X connect 12 0 0 1;
#X connect 13 0 0 0;
#X connect 13 0 9 1;
#X connect 13 0 14 0;
#X connect 13 0 26 2;
#X connect 13 0 22 1;
#X connect 13 0 39 2;
#X connect 13 0 35 1;
#X connect 13 0 27 0;
#X connect 13 0 40 0;
#X connect 13 0 44 2;
#X connect 14 0 15 0;
#X connect 14 0 23 0;
#X connect 15 0 16 0;
#X connect 16 0 56 0;
#X connect 16 1 57 0;
#X connect 16 2 58 0;
#X connect 16 2 59 0;
#X connect 17 0 22 0;
#X connect 18 0 17 0;
#X connect 18 0 19 0;
#X connect 19 0 20 0;
#X connect 20 0 21 0;
#X connect 20 0 53 0;
#X connect 21 0 22 0;
#X connect 22 0 10 0;
#X connect 22 0 10 1;
#X connect 23 0 24 0;
#X connect 23 0 20 1;
#X connect 24 0 25 0;
#X connect 25 0 14 1;
#X connect 25 1 26 1;
#X connect 26 0 18 0;
#X connect 27 0 28 0;
#X connect 27 0 36 0;
#X connect 28 0 29 0;
#X connect 29 0 64 0;
#X connect 29 1 65 0;
#X connect 29 2 66 0;
#X connect 29 2 67 0;
#X connect 30 0 35 0;
#X connect 31 0 30 0;
#X connect 31 0 32 0;
#X connect 32 0 33 0;
#X connect 33 0 34 0;
#X connect 33 0 54 0;
#X connect 34 0 35 0;
#X connect 35 0 10 0;
#X connect 35 0 10 1;
#X connect 35 0 52 0;
#X connect 36 0 37 0;
#X connect 36 0 33 1;
#X connect 37 0 38 0;
#X connect 38 0 27 1;
#X connect 38 1 39 1;
#X connect 39 0 31 0;
#X connect 40 0 41 0;
#X connect 40 0 47 0;
#X connect 41 0 42 0;
#X connect 42 0 43 0;
#X connect 42 0 48 0;
#X connect 43 0 44 0;
#X connect 44 0 45 0;
#X connect 45 0 46 0;
#X connect 46 0 51 1;
#X connect 47 0 44 1;
#X connect 47 0 40 1;
#X connect 48 0 49 0;
#X connect 48 1 41 1;
#X connect 49 0 50 0;
#X connect 50 0 41 1;
#X connect 51 0 10 0;
#X connect 51 0 10 1;
#X connect 52 0 51 0;
#X connect 55 0 4 0;
#X connect 56 0 26 0;
#X connect 57 0 26 0;
#X connect 58 0 26 0;
#X connect 59 0 26 0;
#X connect 60 0 3 0;
#X connect 61 0 3 0;
#X connect 62 0 3 0;
#X connect 63 0 3 0;
#X connect 64 0 39 0;
#X connect 65 0 39 0;
#X connect 66 0 39 0;
#X connect 67 0 39 0;
#X connect 68 0 13 0;
#X restore 510 430 pd sound5;
#X obj 204 95 * 1;
#X obj 203 71 routeOSC /rfidCard;
#X obj 166 314 1;
#X obj 510 314 1;
#X obj 429 314 1;
#X obj 339 314 1;
#X obj 254 314 1;
#X obj 538 314 0;
#X obj 111 314 0;
#X obj 195 314 0;
#X obj 282 314 0;
#X obj 367 314 0;
#X obj 457 314 0;
#X connect 0 0 9 0;
#X connect 0 0 27 0;
#X connect 1 0 0 0;
#X connect 1 0 3 0;
#X connect 1 0 8 0;
#X connect 2 0 19 0;
#X connect 3 0 6 0;
#X connect 4 0 3 0;
#X connect 5 0 3 0;
#X connect 7 0 4 0;
#X connect 11 0 12 0;
#X connect 12 0 2 0;
#X connect 13 0 34 0;
#X connect 14 0 28 0;
#X connect 14 0 35 0;
#X connect 15 0 32 0;
#X connect 15 0 36 0;
#X connect 16 0 31 0;
#X connect 16 0 37 0;
#X connect 17 0 30 0;
#X connect 17 0 38 0;
#X connect 18 0 29 0;
#X connect 18 0 33 0;
#X connect 19 0 13 0;
#X connect 19 1 14 0;
#X connect 19 2 15 0;
#X connect 19 3 16 0;
#X connect 19 4 17 0;
#X connect 19 5 18 0;
#X connect 19 6 20 0;
#X connect 20 0 34 0;
#X connect 26 0 11 0;
#X connect 27 0 10 0;
#X connect 27 0 26 0;
#X connect 28 0 21 0;
#X connect 29 0 25 0;
#X connect 30 0 24 0;
#X connect 31 0 23 0;
#X connect 32 0 22 0;
#X connect 33 0 21 0;
#X connect 33 0 22 0;
#X connect 33 0 23 0;
#X connect 33 0 24 0;
#X connect 34 0 21 0;
#X connect 34 0 22 0;
#X connect 34 0 23 0;
#X connect 34 0 24 0;
#X connect 34 0 25 0;
#X connect 35 0 22 0;
#X connect 35 0 23 0;
#X connect 35 0 24 0;
#X connect 35 0 25 0;
#X connect 36 0 21 0;
#X connect 36 0 23 0;
#X connect 36 0 24 0;
#X connect 36 0 25 0;
#X connect 37 0 21 0;
#X connect 37 0 22 0;
#X connect 37 0 24 0;
#X connect 37 0 25 0;
#X connect 38 0 21 0;
#X connect 38 0 22 0;
#X connect 38 0 23 0;
#X connect 38 0 25 0;
